<mxfile host="app.diagrams.net" modified="2023-07-21T15:35:58.490Z" agent="Mozilla/5.0 (X11; Linux x86_64) AppleWebKit/537.36 (KHTML, like Gecko) Chrome/114.0.0.0 Safari/537.36" version="21.6.5" etag="Kq20uvAB0iji4NgdzpcI" type="github">
  <diagram name="Page-1" id="pcrk5UaZGnBOZ7mG7ilr">
    <mxGraphModel>
      <root>
        <mxCell id="0" />
        <mxCell id="1" parent="0" />
      </root>
    </mxGraphModel>
  </diagram>
</mxfile>
